<!-- Generator: Adobe Illustrator 21.0.2, SVG Export Plug-In  -->
<svg version="1.1"
	 xmlns="http://www.w3.org/2000/svg" xmlns:xlink="http://www.w3.org/1999/xlink" xmlns:a="http://ns.adobe.com/AdobeSVGViewerExtensions/3.0/"
	 x="0px" y="0px" width="384px" height="512px" viewBox="0 0 384 512" style="enable-background:new 0 0 384 512;"
	 xml:space="preserve">
<defs>
</defs>
<g>
	<g>
		<path fill="#6c757d" d="M272,32h-34.8C230.7,13.4,212.9,0,192,0s-38.7,13.4-45.3,32H112c-8.8,0-16,7.2-16,16v64c0,8.8,7.2,16,16,16h160
			c8.8,0,16-7.2,16-16V48C288,39.2,280.8,32,272,32z"/>
	</g>
</g>
<g>
	<g>
		<path fill="#6c757d" d="M352,64h-32v48c0,26.5-21.5,48-48,48H112c-26.5,0-48-21.5-48-48V64H32C14.4,64,0,78.4,0,96v384c0,18,14,32,32,32h320
			c18,0,32-14,32-32V96C384,78,370,64,352,64z M187.3,347.3l-64,64c-3.1,3.1-7.2,4.7-11.3,4.7s-8.2-1.6-11.3-4.7l-32-32
			c-6.2-6.2-6.2-16.4,0-22.6c6.2-6.2,16.4-6.2,22.6,0l20.7,20.7l52.7-52.7c6.2-6.2,16.4-6.2,22.6,0S193.6,341.1,187.3,347.3z
			 M187.3,219.3l-64,64c-3.1,3.1-7.2,4.7-11.3,4.7s-8.2-1.6-11.3-4.7l-32-32c-6.2-6.2-6.2-16.4,0-22.6c6.2-6.2,16.4-6.2,22.6,0
			l20.7,20.7l52.7-52.7c6.2-6.2,16.4-6.2,22.6,0C193.5,202.9,193.6,213.1,187.3,219.3z M304,384h-64c-8.8,0-16-7.2-16-16
			s7.2-16,16-16h64c8.8,0,16,7.2,16,16S312.8,384,304,384z M304,256h-64c-8.8,0-16-7.2-16-16s7.2-16,16-16h64c8.8,0,16,7.2,16,16
			S312.8,256,304,256z"/>
	</g>
</g>
</svg>
